<svg id="Layer_1" data-name="Layer 1" xmlns="http://www.w3.org/2000/svg" xmlns:xlink="http://www.w3.org/1999/xlink" viewBox="0 0 465.59 114.91"><defs><style>.cls-1{fill:url(#linear-gradient);}.cls-2{fill:url(#linear-gradient-2);}.cls-3{fill:url(#linear-gradient-3);}.cls-4{fill:#242424;}</style><linearGradient id="linear-gradient" x1="15.11" y1="89.06" x2="103.54" y2="23.1" gradientUnits="userSpaceOnUse"><stop offset="0" stop-color="#5a2dd2"/><stop offset="1" stop-color="#c14a7d"/></linearGradient><linearGradient id="linear-gradient-2" x1="-10.24" y1="55.07" x2="78.18" y2="-10.89" xlink:href="#linear-gradient"/><linearGradient id="linear-gradient-3" x1="13.99" y1="87.56" x2="102.41" y2="21.59" xlink:href="#linear-gradient"/></defs><title>svg</title><path class="cls-1" d="M110.48,35.35l-3.91,5.94a6.58,6.58,0,0,0-.9,5.1,49.46,49.46,0,1,1-94.33-6.8c0.11-.28.22-0.56,0.34-0.84A49.42,49.42,0,0,1,93.45,23.58a7.5,7.5,0,0,0,10.61.33h0A57.19,57.19,0,1,0,110.48,35.35Zm-8.12,1.41,5-7.66a0.21,0.21,0,0,0,0-.06l-6,5.65C101.71,35.37,102,36.06,102.36,36.76Z"/><path class="cls-2" d="M10.83,38.75h0.84c-0.12.28-.23,0.56-0.34,0.84Z"/><path class="cls-3" d="M107.58,28.84l-0.17.26-5,7.66L73.59,80.41,59.29,56.18a1.09,1.09,0,0,0-1.86,0l-15,24.25L21.35,44.75h6.06a9.38,9.38,0,0,1,8.18,4.79l6.28,11.18L50.6,48.3a9.53,9.53,0,0,1,15.67.12l8,11.73,27.09-25.46,6-5.65Z"/><path class="cls-3" d="M107.58,28.84l-0.17.26-5,7.66L73.59,80.41,59.29,56.18a1.09,1.09,0,0,0-1.86,0l-15,24.25L21.35,44.75h6.06a9.38,9.38,0,0,1,8.18,4.79l6.28,11.18L50.6,48.3a9.53,9.53,0,0,1,15.67.12l8,11.73,27.09-25.46,6-5.65Z"/><path class="cls-4" d="M172.59,74.84a5.43,5.43,0,0,1-3.19,1,5.6,5.6,0,0,1-3.27-1,5.1,5.1,0,0,1-2-3L156.8,47.31l-7.32,24.53a5.1,5.1,0,0,1-2,3,5.6,5.6,0,0,1-3.27,1,5.49,5.49,0,0,1-3.21-1A4.8,4.8,0,0,1,139.08,72l-7.44-28.36a4.4,4.4,0,0,1-.13-1,3,3,0,0,1,1.06-2.35,3.6,3.6,0,0,1,2.44-.92,3.22,3.22,0,0,1,2,.69,3.41,3.41,0,0,1,1.19,2l6.41,26.32,7.47-24.86a6.23,6.23,0,0,1,1.75-3.14,4.94,4.94,0,0,1,5.91,0,6.23,6.23,0,0,1,1.75,3.14l7.44,24.86,6.44-26.32a3.4,3.4,0,0,1,1.19-2,3.22,3.22,0,0,1,2-.69,3.6,3.6,0,0,1,2.44.92,3,3,0,0,1,1.06,2.38,4.32,4.32,0,0,1-.13.93L174.5,72A4.82,4.82,0,0,1,172.59,74.84Z"/><path class="cls-4" d="M193,75a10.65,10.65,0,0,1-4.13-2.92A13.12,13.12,0,0,1,186.5,68a14.22,14.22,0,0,1-.8-4.8,15.3,15.3,0,0,1,.49-3.88,12.43,12.43,0,0,1,1.55-3.53,11.94,11.94,0,0,1,2.58-2.89A11.5,11.5,0,0,1,194,50.92a16.73,16.73,0,0,1,9.6,0A11.31,11.31,0,0,1,210,55.62a12.26,12.26,0,0,1,1.6,3.56,15.28,15.28,0,0,1,.52,4,14.76,14.76,0,0,1-.49,3.82A12.91,12.91,0,0,1,210,70.5a11.44,11.44,0,0,1-2.56,2.89,11.81,11.81,0,0,1-3.73,1.95,15.5,15.5,0,0,1-4.88.73A15.14,15.14,0,0,1,193,75Zm11-5.48a9.89,9.89,0,0,0,1.81-6.33,10.05,10.05,0,0,0-1.81-6.39,6.78,6.78,0,0,0-10.14,0,10.09,10.09,0,0,0-1.8,6.4,9.89,9.89,0,0,0,1.81,6.33A6.8,6.8,0,0,0,203.94,69.51Z"/><path class="cls-4" d="M243.18,74.81a7.85,7.85,0,0,1-1.9-3.59l-5-14.78-5,14.78a7.85,7.85,0,0,1-1.9,3.59,4.1,4.1,0,0,1-2.8,1q-2.89,0-4.12-4.22l-5.58-17.19a3.74,3.74,0,0,1-.15-1,2.48,2.48,0,0,1,.85-2,2.94,2.94,0,0,1,2-.74,2.78,2.78,0,0,1,1.68.55,2.92,2.92,0,0,1,1.06,1.63l4.93,16.49,5.08-15.08a6.45,6.45,0,0,1,1.53-2.75,3.77,3.77,0,0,1,4.93,0,6.45,6.45,0,0,1,1.53,2.75l5.08,15.08,4.93-16.49a2.92,2.92,0,0,1,1.06-1.63A2.78,2.78,0,0,1,253,50.6a2.94,2.94,0,0,1,2,.74,2.48,2.48,0,0,1,.85,2,3.74,3.74,0,0,1-.15,1l-5.58,17.19q-1.23,4.22-4.12,4.22A4.11,4.11,0,0,1,243.18,74.81Z"/><path class="cls-4" d="M269.24,74.13a16.06,16.06,0,0,1-6.16-6.57,21,21,0,0,1-2.25-9.89,22.59,22.59,0,0,1,1.36-8,17.12,17.12,0,0,1,3.75-6.06,16.72,16.72,0,0,1,5.67-3.78,18.54,18.54,0,0,1,7.1-1.34,20.86,20.86,0,0,1,9.43,2.31,2.91,2.91,0,0,1,1.73,2.61,3,3,0,0,1-.83,2.06,2.58,2.58,0,0,1-2,.91,2.72,2.72,0,0,1-1-.2l-0.92-.4q-0.72-.33-1.23-0.52t-1.32-.43a11.63,11.63,0,0,0-1.71-.37,13.83,13.83,0,0,0-1.89-.12q-5.1,0-7.87,3.27t-2.76,9.88q0,6.29,2.78,9.69t8,3.41a15.82,15.82,0,0,0,7.49-2.19,2.25,2.25,0,0,1,1.06-.28,2.2,2.2,0,0,1,1.75.85,3,3,0,0,1-.69,4.5,18.88,18.88,0,0,1-10.73,2.94A17.16,17.16,0,0,1,269.24,74.13Z"/><path class="cls-4" d="M297.13,74.15a6.31,6.31,0,0,1-2.45-5.29A10,10,0,0,1,295,66.2a6.52,6.52,0,0,1,.88-2,4.62,4.62,0,0,1,1.6-1.41,11.61,11.61,0,0,1,2.19-.94,15.89,15.89,0,0,1,2.93-.57q1.77-.2,3.58-0.26t4.37-.06V59.05a4.66,4.66,0,0,0-1.12-3.46,4.58,4.58,0,0,0-3.33-1.09q-0.48,0-1,0t-1,.13l-0.88.15a8.39,8.39,0,0,0-.91.21l-0.8.23c-0.18.05-.45,0.14-0.8,0.26l-0.68.24-0.68.26-0.55.21a1.7,1.7,0,0,1-.7.13,1.88,1.88,0,0,1-1.5-.74,2.55,2.55,0,0,1-.62-1.67,1.81,1.81,0,0,1,1.11-1.76,21.53,21.53,0,0,1,9.28-2,15,15,0,0,1,4.15.53,9.39,9.39,0,0,1,3.24,1.63,7.12,7.12,0,0,1,2.17,3,11.78,11.78,0,0,1,.77,4.45V72.6a3.06,3.06,0,0,1-.88,2.34,3,3,0,0,1-2.11.83,3,3,0,0,1-3-3.17V71.77a6.87,6.87,0,0,1-2.6,3.1,8.38,8.38,0,0,1-4.71,1.19A10.05,10.05,0,0,1,297.13,74.15Zm11.45-4a6.91,6.91,0,0,0,1.94-5V64.36q-2.51,0-4,.08a25.53,25.53,0,0,0-2.79.29,4.54,4.54,0,0,0-1.95.68,3.15,3.15,0,0,0-1,1.21,4.43,4.43,0,0,0-.35,1.9,3.42,3.42,0,0,0,1,2.68,3.88,3.88,0,0,0,2.7.92A6,6,0,0,0,308.58,70.11Z"/><path class="cls-4" d="M324.77,74.88a3.45,3.45,0,0,1-.89-2.55V53.57a2.74,2.74,0,0,1,.94-2.22,3.38,3.38,0,0,1,2.25-.79,3.42,3.42,0,0,1,2.22.77,2.5,2.5,0,0,1,.92,2.1L330.13,56a8.09,8.09,0,0,1,2.58-3.88A6.39,6.39,0,0,1,337,50.5a2.16,2.16,0,0,1,1.78.78,2.91,2.91,0,0,1,.63,1.89,3.11,3.11,0,0,1-.58,1.86,1.82,1.82,0,0,1-1.56.8,12.94,12.94,0,0,0-2.63.24,7.49,7.49,0,0,0-2.2.84,4,4,0,0,0-1.63,1.83,7.07,7.07,0,0,0-.58,3V72.37a3.38,3.38,0,0,1-.89,2.51,3.14,3.14,0,0,1-2.3.88A3,3,0,0,1,324.77,74.88Z"/><path class="cls-4" d="M349.83,75a10.65,10.65,0,0,1-4.13-2.92,13.12,13.12,0,0,1-2.35-4.1,14.22,14.22,0,0,1-.8-4.8,15.3,15.3,0,0,1,.49-3.88,12.43,12.43,0,0,1,1.55-3.53,11.94,11.94,0,0,1,2.58-2.89,11.5,11.5,0,0,1,3.72-1.95,16.73,16.73,0,0,1,9.6,0,11.31,11.31,0,0,1,6.32,4.73,12.26,12.26,0,0,1,1.6,3.56,15.28,15.28,0,0,1,.52,4,14.76,14.76,0,0,1-.49,3.82,12.91,12.91,0,0,1-1.53,3.51,11.44,11.44,0,0,1-2.56,2.89,11.81,11.81,0,0,1-3.73,1.95,15.5,15.5,0,0,1-4.88.73A15.14,15.14,0,0,1,349.83,75Zm11-5.48a9.89,9.89,0,0,0,1.81-6.33,10.05,10.05,0,0,0-1.81-6.39,6.78,6.78,0,0,0-10.14,0,10.09,10.09,0,0,0-1.8,6.4,9.89,9.89,0,0,0,1.81,6.33A6.8,6.8,0,0,0,360.79,69.51Z"/><path class="cls-4" d="M380.2,75.48a9,9,0,0,1-2.88-1.73,7.8,7.8,0,0,1-2-3,11.6,11.6,0,0,1-.74-4.27V54a3.51,3.51,0,0,1,.91-2.58,3.11,3.11,0,0,1,2.31-.92,2.94,2.94,0,0,1,2.21.92,3.58,3.58,0,0,1,.88,2.58V66.44a5.45,5.45,0,0,0,1.33,4,4.53,4.53,0,0,0,3.39,1.37,5.8,5.8,0,0,0,4.39-2,7.3,7.3,0,0,0,1.85-5.18V54a3.54,3.54,0,0,1,.89-2.58,3,3,0,0,1,2.27-.92,3,3,0,0,1,2.26.92,3.57,3.57,0,0,1,.88,2.58V72.6a3,3,0,0,1-.91,2.34,3.25,3.25,0,0,1-2.29.83,3.18,3.18,0,0,1-2.24-.8,2.94,2.94,0,0,1-.88-2.29V71.75q-2.26,4.32-8.22,4.32A9.74,9.74,0,0,1,380.2,75.48Z"/><path class="cls-4" d="M404.43,71.54a2.11,2.11,0,0,1,.57-1.46,1.86,1.86,0,0,1,1.45-.63,2.69,2.69,0,0,1,1.31.38q1.11,0.63,1.77,1a13.76,13.76,0,0,0,2.15.74,11,11,0,0,0,3,.41,10.62,10.62,0,0,0,2.6-.29,4.38,4.38,0,0,0,2-1.06,2.59,2.59,0,0,0,.82-2q0-2.14-3.49-3l-3.92-1q-1.78-.48-2.89-0.86a15.89,15.89,0,0,1-2.24-1,5,5,0,0,1-2.71-3.09,7.52,7.52,0,0,1-.38-2.5,6,6,0,0,1,2.77-5.29,12.85,12.85,0,0,1,7.26-1.85A18.69,18.69,0,0,1,422.65,52,2.13,2.13,0,0,1,424,54a2,2,0,0,1-.52,1.37,1.76,1.76,0,0,1-1.37.57,2.93,2.93,0,0,1-1-.2l-0.55-.2-0.74-.26L419.06,55a9.88,9.88,0,0,0-1-.28l-1-.2a11,11,0,0,0-1.14-.16q-0.57-.05-1.14-0.05a7.66,7.66,0,0,0-3.29.64,2.08,2.08,0,0,0-1.36,2,2.06,2.06,0,0,0,.74,1.75,8,8,0,0,0,2.83,1l3.87,1a13.5,13.5,0,0,1,5.92,2.74,6.22,6.22,0,0,1,1.87,4.8,6.8,6.8,0,0,1-2.83,5.88,12.29,12.29,0,0,1-7.35,2,16.27,16.27,0,0,1-9.85-2.92A2,2,0,0,1,404.43,71.54Z"/><path class="cls-4" d="M431.1,56.6A11.4,11.4,0,0,1,435.41,52a12.47,12.47,0,0,1,6.66-1.76,13,13,0,0,1,5.17,1,9.2,9.2,0,0,1,3.62,2.68,12.22,12.22,0,0,1,2.07,3.85,15.21,15.21,0,0,1,.73,4.63,2.57,2.57,0,0,1-.45,1.58,1.59,1.59,0,0,1-1.36.6H436q0.4,7.09,7.26,7.09a11.64,11.64,0,0,0,6.66-2.54,1.57,1.57,0,0,1,1-.35,1.79,1.79,0,0,1,1.38.7,2.37,2.37,0,0,1,.6,1.58,2.19,2.19,0,0,1-.8,1.71,14,14,0,0,1-9.28,3.34,13.13,13.13,0,0,1-9.54-3.47q-3.58-3.47-3.58-9.68A13.79,13.79,0,0,1,431.1,56.6ZM448.28,61a8.41,8.41,0,0,0-1.67-4.75,5.22,5.22,0,0,0-4.36-1.86,5.41,5.41,0,0,0-4.41,1.94A8.22,8.22,0,0,0,436,61h12.27Z"/><path class="cls-4" d="M460.12,74.85a3.64,3.64,0,0,1-.87-2.6V43.06a3.61,3.61,0,0,1,.88-2.59,3,3,0,0,1,2.26-.93,3.06,3.06,0,0,1,2.29.93,3.55,3.55,0,0,1,.91,2.59V72.25a3.53,3.53,0,0,1-.92,2.59,3.13,3.13,0,0,1-2.33.93A2.92,2.92,0,0,1,460.12,74.85Z"/></svg>