<svg xmlns="http://www.w3.org/2000/svg" xmlns:xlink="http://www.w3.org/1999/xlink" width="275" height="256" viewBox="0 0 275 256">
  <defs>
    <filter id="Rectangle_3" x="0" y="16" width="172" height="217" filterUnits="userSpaceOnUse">
      <feOffset dy="12" input="SourceAlpha"/>
      <feGaussianBlur stdDeviation="12" result="blur"/>
      <feFlood flood-opacity="0.161"/>
      <feComposite operator="in" in2="blur"/>
      <feComposite in="SourceGraphic"/>
    </filter>
    <linearGradient id="linear-gradient" x1="0.208" y1="-0.09" x2="1.167" y2="1.549" gradientUnits="objectBoundingBox">
      <stop offset="0" stop-color="#6c39fb"/>
      <stop offset="1" stop-color="#5124dc"/>
      <stop offset="1"/>
    </linearGradient>
    <linearGradient id="linear-gradient-2" x1="-0.414" y1="0.071" x2="1.464" y2="1" gradientUnits="objectBoundingBox">
      <stop offset="0" stop-color="#5f2cff"/>
      <stop offset="1" stop-color="#ff67a8"/>
    </linearGradient>
    <filter id="Path_2" x="108.832" y="103.44" width="84.23" height="89.051" filterUnits="userSpaceOnUse">
      <feOffset dy="10" input="SourceAlpha"/>
      <feGaussianBlur stdDeviation="10" result="blur-2"/>
      <feFlood flood-opacity="0.2"/>
      <feComposite operator="in" in2="blur-2"/>
      <feComposite in="SourceGraphic"/>
    </filter>
  </defs>
  <g id="final_cf7_icon" data-name="final cf7 icon" transform="translate(-988 -405)">
    <rect id="Rectangle_2" data-name="Rectangle 2" width="256" height="256" transform="translate(1007 405)" fill="#562dd4"/>
    <g id="Group_4" data-name="Group 4" transform="translate(-1 -13)">
      <g transform="matrix(1, 0, 0, 1, 989, 418)" filter="url(#Rectangle_3)">
        <rect id="Rectangle_3-2" data-name="Rectangle 3" width="100" height="145" transform="translate(36 40)" fill="#e5feff"/>
      </g>
      <rect id="Rectangle_4" data-name="Rectangle 4" width="64" height="9" transform="translate(1045 479)" fill="#c6e5e7"/>
      <rect id="Rectangle_5" data-name="Rectangle 5" width="64" height="9" transform="translate(1045 497)" fill="#c6e5e7"/>
      <rect id="Rectangle_6" data-name="Rectangle 6" width="64" height="9" transform="translate(1045 515)" fill="#c6e5e7"/>
      <rect id="Rectangle_7" data-name="Rectangle 7" width="64" height="34" transform="translate(1045 533)" fill="#c6e5e7"/>
      <rect id="Rectangle_8" data-name="Rectangle 8" width="26" height="8" transform="translate(1045 574)" fill="#c6e5e7"/>
    </g>
    <g id="Group_12" data-name="Group 12" transform="translate(0 -15)">
      <rect id="Rectangle_9" data-name="Rectangle 9" width="104" height="145" rx="4" transform="translate(1142 460)" fill="url(#linear-gradient)"/>
      <g id="Group_2" data-name="Group 2" transform="translate(-1 2)">
        <g id="Group_1" data-name="Group 1">
          <rect id="Rectangle_10" data-name="Rectangle 10" width="40" height="10" rx="2" transform="translate(1153 479)" fill="#e6deff"/>
          <rect id="Rectangle_15" data-name="Rectangle 15" width="40" height="10" rx="2" transform="translate(1197 479)" fill="#e6deff"/>
        </g>
        <rect id="Rectangle_11" data-name="Rectangle 11" width="84" height="10" rx="2" transform="translate(1153 499)" fill="#e6deff"/>
        <rect id="Rectangle_13" data-name="Rectangle 13" width="84" height="45" rx="3" transform="translate(1153 519)" fill="#e6deff"/>
        <rect id="Rectangle_14" data-name="Rectangle 14" width="26" height="9" rx="4.5" transform="translate(1153 572)" fill="#e6deff"/>
      </g>
    </g>
    <g id="Group_8" data-name="Group 8" transform="translate(0 -15)">
      <g id="Group_7" data-name="Group 7" transform="translate(-5 -9)">
        <rect id="Rectangle_17" data-name="Rectangle 17" width="38" height="13" rx="6.5" transform="translate(1117 544)" fill="url(#linear-gradient-2)"/>
        <path id="XMLID_1455_" d="M15.144,12.562,16.138,3.6l1.338.782A.418.418,0,0,0,18,3.75L14.921.151a.418.418,0,0,0-.634,0L11.2,3.75a.417.417,0,0,0,.526.633l1.34-.781.994,8.96A.544.544,0,0,0,15.144,12.562Z" transform="translate(1142.044 535.902) rotate(90)" fill="#e5feff"/>
      </g>
      <g transform="matrix(1, 0, 0, 1, 988, 420)" filter="url(#Path_2)">
        <path id="Path_2-2" data-name="Path 2" d="M46.208,51.68,40.24,50.173a.484.484,0,0,1-.363-.471V40.34c0-3.218-4.946-3.2-4.946,0v14.3a.486.486,0,0,1-.76.392l-3.185-2.35a.477.477,0,0,1-.074-.068,2.241,2.241,0,0,0-3.259-.091,2.239,2.239,0,0,0-.077,3.082c.009.01.018.021.026.032l7.086,9.351H47.343l1.574-8.934A3.694,3.694,0,0,0,46.208,51.68Z" transform="translate(113 86.51)" fill="#b7d8ff" stroke="#fff" stroke-width="2"/>
      </g>
    </g>
    <text id="CF7_Styler_for_Divi" data-name="CF7 Styler for Divi" transform="translate(1040 631)" fill="#fff" font-size="18" font-family="Nunito-ExtraBold, Nunito" font-weight="800"><tspan x="0" y="0">CF7 STYLER FOR DIVI</tspan></text>
  </g>
</svg>
